<?xml version="1.0" standalone="no"?>
<!DOCTYPE svg PUBLIC "-//W3C//DTD SVG 20010904//EN"
 "http://www.w3.org/TR/2001/REC-SVG-20010904/DTD/svg10.dtd">
<svg version="1.0" xmlns="http://www.w3.org/2000/svg"
 width="714.000000pt" height="635.000000pt" viewBox="0 0 714.000000 635.000000"
 preserveAspectRatio="xMidYMid meet">

<g transform="translate(0.000000,635.000000) scale(0.100000,-0.100000)"
fill="#000000" stroke="none">
<path d="M2461 4579 c0 -70 5 -110 28 -224 24 -123 100 -282 195 -409 81 -107
81 -107 104 -44 l19 52 -59 71 c-145 171 -230 344 -263 534 -9 47 -17 87 -20
89 -3 3 -5 -28 -4 -69z"/>
<path d="M6553 4483 c-62 -244 -253 -508 -495 -686 -318 -234 -688 -371 -1188
-439 -145 -19 -565 -17 -720 5 -308 43 -553 112 -799 225 l-144 66 -286 -145
-286 -144 -27 -70 c-32 -81 -33 -95 -13 -95 8 0 151 68 317 151 l301 151 116
-55 c208 -99 447 -174 666 -211 240 -40 692 -46 936 -12 823 115 1456 542
1614 1090 22 76 46 256 34 256 -2 0 -14 -39 -26 -87z"/>
</g>
</svg>
