<?xml version="1.0" encoding="utf-8"?>
<!-- Svg Vector Icons : http://www.onlinewebfonts.com/icon -->
<!DOCTYPE svg PUBLIC "-//W3C//DTD SVG 1.1//EN" "http://www.w3.org/Graphics/SVG/1.1/DTD/svg11.dtd">
<svg version="1.1" xmlns="http://www.w3.org/2000/svg" xmlns:xlink="http://www.w3.org/1999/xlink" x="0px" y="0px" viewBox="0 0 1000 1000" enable-background="new 0 0 1000 1000" xml:space="preserve">
<metadata> Svg Vector Icons : http://www.onlinewebfonts.com/icon </metadata>
<g><path d="M186.8,500L650,36.8c6.1-6.1,6.1-16.1,0-22.2c-6.1-6.1-16.1-6.1-22.2,0L153.5,488.9c-6.1,6.1-6.1,16.1,0,22.2l474.3,474.3c3.1,3.1,7.1,4.6,11.1,4.6c4,0,8-1.5,11.1-4.6c6.1-6.1,6.1-16.1,0-22.2L186.8,500z M383.4,500L846.5,36.8c6.1-6.1,6.1-16.1,0-22.2c-6.1-6.1-16.1-6.1-22.2,0L350,488.9c-6.1,6.1-6.1,16.1,0,22.2l474.3,474.3c3.1,3.1,7.1,4.6,11.1,4.6c4,0,8-1.5,11.1-4.6c6.1-6.1,6.1-16.1,0-22.2L383.4,500z"/></g>
</svg>